<?xml version="1.0" encoding="UTF-8"?>
<svg version="1.1" xmlns="http://www.w3.org/2000/svg" width="225" height="225">
<path d="M0 0 C0.886875 0.53625 1.77375 1.0725 2.6875 1.625 C10.37341384 9.51864124 12.12078979 20.48356738 12.125 31.12109375 C12.07793916 34.28005258 12.00000299 37.43737912 11.921875 40.59570312 C11.77748039 50.30022437 12.16758161 59.84644325 17.1953125 68.37890625 C22.51143266 73.15420899 29.53473531 73.45889526 36.3125 73.51171875 C37.07111328 73.52835571 37.82972656 73.54499268 38.61132812 73.56213379 C41.40727881 73.61935676 44.20368861 73.65204119 47 73.6875 C53.27 73.790625 59.54 73.89375 66 74 C65.67 60.47 65.34 46.94 65 33 C60.05 33.495 60.05 33.495 55 34 C54.01 32.68 53.02 31.36 52 30 C56.65800847 26.17377875 60.2297293 25.86048655 66.1875 25.875 C67.78658203 25.87113281 67.78658203 25.87113281 69.41796875 25.8671875 C72 26 72 26 73 27 C73.09346915 28.65738443 73.11744977 30.31874644 73.11352539 31.97875977 C73.11341209 33.57029625 73.11341209 33.57029625 73.11329651 35.19398499 C73.10813522 36.348134 73.10297394 37.50228302 73.09765625 38.69140625 C73.0962413 39.86638168 73.09482635 41.04135712 73.09336853 42.25193787 C73.08774992 46.02215064 73.07519426 49.79230504 73.0625 53.5625 C73.0574874 56.11132727 73.05292408 58.66015547 73.04882812 61.20898438 C73.03777444 67.47267633 73.02101821 73.73633399 73 80 C68.79096016 81.17670391 64.69365725 81.16200619 60.3515625 81.16796875 C59.50258392 81.17129715 58.65360535 81.17462555 57.77890015 81.17805481 C55.97841939 81.18311529 54.17792927 81.18546341 52.37744141 81.18530273 C49.66943045 81.18746453 46.96184383 81.2055603 44.25390625 81.22460938 C16.31413047 81.31832494 16.31413047 81.31832494 6 74 C4.96875 73.278125 3.9375 72.55625 2.875 71.8125 C-7.43314527 62.56086823 -10.80294146 49.67897906 -14.17700195 36.7746582 C-17.66872183 23.46128519 -20.64945294 12.66988595 -32 4 C-33.35010281 2.68364976 -34.69414946 1.36026098 -36 0 C-34.62929219 -0.65489373 -33.25316556 -1.29844963 -31.875 -1.9375 C-31.10929687 -2.29714844 -30.34359375 -2.65679687 -29.5546875 -3.02734375 C-19.96657911 -6.67786208 -8.54318846 -5.64788354 0 0 Z " fill="#4F165F" transform="translate(91,69)"/>
<path d="M0 0 C0.72574219 -0.01224609 1.45148438 -0.02449219 2.19921875 -0.03710938 C3.28396484 -0.04000977 3.28396484 -0.04000977 4.390625 -0.04296875 C5.03547852 -0.04707764 5.68033203 -0.05118652 6.34472656 -0.05541992 C9.87485745 0.30110467 13.30784829 1.32696207 16.75 2.1875 C16.75 26.6075 16.75 51.0275 16.75 76.1875 C7.015 76.22875 -2.72 76.27 -12.75 76.3125 C-15.78896484 76.33070801 -18.82792969 76.34891602 -21.95898438 76.36767578 C-66.99950623 76.52662498 -66.99950623 76.52662498 -81.25 63.1875 C-81.85328125 62.63707031 -82.4565625 62.08664063 -83.078125 61.51953125 C-90.75049911 53.69163604 -94.93296895 42.5678954 -99 32.5625 C-101.98186508 25.28989836 -104.69956037 21.0654779 -111.640625 17.265625 C-112.17171875 16.90984375 -112.7028125 16.5540625 -113.25 16.1875 C-113.25 15.5275 -113.25 14.8675 -113.25 14.1875 C-107.61513709 10.26759536 -103.10120085 9.1003673 -96.25 10.1875 C-90.42189504 12.77776887 -88.66724664 16.62492039 -86.25 22.1875 C-85.21365516 25.0755879 -84.32795266 28.00173925 -83.4375 30.9375 C-79.45875464 43.34272337 -73.82847178 55.14198957 -62.21484375 61.97265625 C-55.75564666 65.29251089 -50.74174413 67.28219085 -43.47167969 67.39282227 C-42.29460449 67.41300415 -41.1175293 67.43318604 -39.90478516 67.45397949 C-38.6729248 67.47045532 -37.44106445 67.48693115 -36.171875 67.50390625 C-35.03572754 67.52255737 -33.89958008 67.5412085 -32.72900391 67.5604248 C-28.4860815 67.62870854 -24.24303145 67.68886616 -20 67.75 C-10.5125 67.894375 -1.025 68.03875 8.75 68.1875 C8.42 48.0575 8.09 27.9275 7.75 7.1875 C-6.32250755 6.76395099 -6.32250755 6.76395099 -18.25 11.1875 C-20.25 12.1875 -20.25 12.1875 -23.375 11.25 C-24.32375 10.899375 -25.2725 10.54875 -26.25 10.1875 C-25.25 7.1875 -25.25 7.1875 -22.44921875 5.6171875 C-21.29035156 5.10414062 -20.13148438 4.59109375 -18.9375 4.0625 C-17.78636719 3.54429688 -16.63523437 3.02609375 -15.44921875 2.4921875 C-10.20552008 0.35373163 -5.63969672 0.00490408 0 0 Z " fill="#4C165C" transform="translate(158.25,84.8125)"/>
<path d="M0 0 C4.17085339 3.61217095 6.44227538 7.86320569 6.96484375 13.3203125 C7.1596291 19.7107702 7.15134095 24.56566537 3.2578125 29.8125 C-1.54738431 34.88132357 -6.46472688 37.58891502 -13.49609375 37.77734375 C-19.70071421 37.7035768 -24.30149585 36.33386063 -28.83984375 32.00390625 C-34.12563587 25.94983039 -34.71389818 21.46630549 -34.546875 13.58984375 C-34.0925804 7.63188181 -31.75211898 4.69706733 -27.55859375 0.71484375 C-19.15756327 -6.18927585 -8.83868503 -6.16029563 0 0 Z " fill="#4F165F" transform="translate(142.30859375,101.53515625)"/>
<path d="M0 0 C0.72574219 -0.01224609 1.45148438 -0.02449219 2.19921875 -0.03710938 C3.28396484 -0.04000977 3.28396484 -0.04000977 4.390625 -0.04296875 C5.03547852 -0.04707764 5.68033203 -0.05118652 6.34472656 -0.05541992 C9.87485745 0.30110467 13.30784829 1.32696207 16.75 2.1875 C16.75 26.6075 16.75 51.0275 16.75 76.1875 C-18.07142857 76.1875 -18.07142857 76.1875 -30.25 75.1875 C-30.25 74.8575 -30.25 74.5275 -30.25 74.1875 C-16.72 73.8575 -3.19 73.5275 10.75 73.1875 C11.245 71.2075 11.245 71.2075 11.75 69.1875 C10.76 69.6825 10.76 69.6825 9.75 70.1875 C7.9320546 70.2784215 6.11074055 70.30503467 4.29052734 70.30102539 C3.14949554 70.30094986 2.00846375 70.30087433 0.83285522 70.30079651 C-0.40362762 70.29563522 -1.64011047 70.29047394 -2.9140625 70.28515625 C-4.17640717 70.2837413 -5.43875183 70.28232635 -6.73934937 70.28086853 C-10.09638299 70.27621078 -13.453349 70.26722408 -16.81036377 70.25616455 C-20.23554906 70.2459377 -23.66074134 70.24136818 -27.0859375 70.23632812 C-33.80731043 70.22528238 -40.52865131 70.20853194 -47.25 70.1875 C-47.58 69.5275 -47.91 68.8675 -48.25 68.1875 C-29.44 68.1875 -10.63 68.1875 8.75 68.1875 C8.42 48.0575 8.09 27.9275 7.75 7.1875 C-6.32250755 6.76395099 -6.32250755 6.76395099 -18.25 11.1875 C-20.25 12.1875 -20.25 12.1875 -23.375 11.25 C-24.798125 10.7240625 -24.798125 10.7240625 -26.25 10.1875 C-25.25 7.1875 -25.25 7.1875 -22.44921875 5.6171875 C-21.29035156 5.10414062 -20.13148438 4.59109375 -18.9375 4.0625 C-17.78636719 3.54429688 -16.63523438 3.02609375 -15.44921875 2.4921875 C-10.20552008 0.35373163 -5.63969672 0.00490408 0 0 Z " fill="#4E1560" transform="translate(158.25,84.8125)"/>
<path d="M0 0 C1.485 0.99 1.485 0.99 3 2 C3 1.67 3 1.34 3 1 C22.47 0.67 41.94 0.34 62 0 C61.67 1.32 61.34 2.64 61 4 C58.04491553 4.83371359 55.29890387 5.17889534 52.234375 5.31640625 C51.34492188 5.35830078 50.45546875 5.40019531 49.5390625 5.44335938 C48.15847656 5.50233398 48.15847656 5.50233398 46.75 5.5625 C45.81414062 5.60568359 44.87828125 5.64886719 43.9140625 5.69335938 C41.60951359 5.7991805 39.30486161 5.90126557 37 6 C37 6.33 37 6.66 37 7 C32.67668037 7.02480062 28.35339894 7.04290758 24.0300293 7.05493164 C22.56062091 7.05994669 21.09121748 7.06676033 19.62182617 7.07543945 C17.50438205 7.08762928 15.38700417 7.09325669 13.26953125 7.09765625 C11.36071167 7.10551147 11.36071167 7.10551147 9.41333008 7.11352539 C6.43321103 7.01440835 3.84760734 6.87535744 1 6 C-0.3125 3.4375 -0.3125 3.4375 -1 1 C-0.67 0.67 -0.34 0.34 0 0 Z " fill="#501A5F" transform="translate(108,154)"/>
<path d="M0 0 C1.59908203 -0.00386719 1.59908203 -0.00386719 3.23046875 -0.0078125 C5.8125 0.125 5.8125 0.125 6.8125 1.125 C6.90596915 2.78238443 6.92994977 4.44374644 6.92602539 6.10375977 C6.92594986 7.16478409 6.92587433 8.22580841 6.92579651 9.31898499 C6.92063522 10.473134 6.91547394 11.62728302 6.91015625 12.81640625 C6.9087413 13.99138168 6.90732635 15.16635712 6.90586853 16.37693787 C6.90024992 20.14715064 6.88769426 23.91730504 6.875 27.6875 C6.8699874 30.23632727 6.86542408 32.78515547 6.86132812 35.33398438 C6.85027444 41.59767633 6.83351821 47.86133399 6.8125 54.125 C2.55757172 55.31963498 -1.5875101 55.26860855 -5.9765625 55.2578125 C-6.83502777 55.25876923 -7.69349304 55.25972595 -8.57797241 55.26071167 C-10.39524407 55.26139162 -12.21251817 55.2595502 -14.02978516 55.25537109 C-16.78163269 55.25005958 -19.53331405 55.2553019 -22.28515625 55.26171875 C-24.05729202 55.26105717 -25.82942769 55.25977436 -27.6015625 55.2578125 C-28.4123526 55.25983673 -29.2231427 55.26186096 -30.0585022 55.26394653 C-35.81739629 55.24088532 -41.46789424 54.78669227 -47.1875 54.125 C-47.1875 53.465 -47.1875 52.805 -47.1875 52.125 C-40.90699126 52.09956023 -34.62649591 52.08209545 -28.34594727 52.07006836 C-26.21117659 52.06505222 -24.07640933 52.05823776 -21.94165039 52.04956055 C-18.86603958 52.03737565 -15.79047437 52.03174438 -12.71484375 52.02734375 C-11.76665268 52.02218246 -10.81846161 52.01702118 -9.84153748 52.01170349 C-8.94113235 52.01162796 -8.04072723 52.01155243 -7.11303711 52.01147461 C-6.32916122 52.009254 -5.54528534 52.00703339 -4.73765564 52.00474548 C-1.53600159 52.1557219 1.63950222 52.6717146 4.8125 53.125 C4.8125 36.295 4.8125 19.465 4.8125 2.125 C-6.13522642 2.28937098 -6.13522642 2.28937098 -11.1875 5.125 C-12.1775 4.795 -13.1675 4.465 -14.1875 4.125 C-9.52949153 0.29877875 -5.9577707 -0.01451345 0 0 Z " fill="#390E4B" transform="translate(157.1875,94.875)"/>
<path d="M0 0 C1.1240625 -0.01417969 2.248125 -0.02835937 3.40625 -0.04296875 C6.43445104 0.18261693 7.89707447 0.7674986 10.5 2.1875 C10.5231271 10.38440561 10.54091696 18.58129768 10.55181217 26.77822781 C10.5570402 30.58401577 10.56413638 34.38978148 10.57543945 38.19555664 C10.5862712 41.86542544 10.59227744 45.53527278 10.59487724 49.20515633 C10.59673097 50.60824992 10.6003506 52.01134229 10.60573006 53.4144268 C10.61294419 55.3731968 10.61340809 57.3319882 10.61352539 59.29077148 C10.615746 60.40773911 10.61796661 61.52470673 10.62025452 62.67552185 C10.5 65.1875 10.5 65.1875 9.5 66.1875 C7.72008076 66.28120624 5.93643261 66.30494271 4.15405273 66.30102539 C3.0129454 66.30094986 1.87183807 66.30087433 0.69615173 66.30079651 C-0.5454924 66.29563522 -1.78713654 66.29047394 -3.06640625 66.28515625 C-4.96204567 66.28303383 -4.96204567 66.28303383 -6.89598083 66.28086853 C-10.26124889 66.27620582 -13.6264499 66.2672148 -16.99169922 66.25616455 C-20.4234967 66.24594846 -23.85530109 66.24137049 -27.28710938 66.23632812 C-34.02475824 66.2252738 -40.76237525 66.2085171 -47.5 66.1875 C-47.83 65.5275 -48.16 64.8675 -48.5 64.1875 C-29.69 64.1875 -10.88 64.1875 8.5 64.1875 C8.17 44.0575 7.84 23.9275 7.5 3.1875 C1.56 3.1875 -4.38 3.1875 -10.5 3.1875 C-10.5 2.5275 -10.5 1.8675 -10.5 1.1875 C-6.9775246 0.10831023 -3.67240199 0.02105735 0 0 Z " fill="#381046" transform="translate(158.5,88.8125)"/>
<path d="M0 0 C1.98 0.33 3.96 0.66 6 1 C6 25.42 6 49.84 6 75 C-28.82142857 75 -28.82142857 75 -41 74 C-41 73.67 -41 73.34 -41 73 C-26.15 73 -11.3 73 4 73 C3.67 49.57 3.34 26.14 3 2 C1.68 1.67 0.36 1.34 -1 1 C-0.67 0.67 -0.34 0.34 0 0 Z " fill="#3C144B" transform="translate(169,86)"/>
<path d="M0 0 C2.06126206 2.06126206 1.30577919 6.35686615 1.38671875 9.19921875 C1.41224319 10.02702347 1.43776764 10.85482819 1.46406555 11.7077179 C1.5161882 13.46546969 1.56560106 15.22330355 1.61254883 16.98120117 C1.68671552 19.65917434 1.77751396 22.33624689 1.86914062 25.01367188 C1.91769536 26.72132523 1.96525287 28.42900728 2.01171875 30.13671875 C2.04077805 30.9338176 2.06983734 31.73091644 2.09977722 32.5521698 C2.20229407 37.13289051 1.7636352 40.68290714 0 45 C-5.24695799 45.07466663 -10.49360043 45.12884421 -15.7409668 45.16479492 C-17.52259719 45.17979643 -19.30419119 45.20020433 -21.08569336 45.22631836 C-23.66008535 45.26308509 -26.2339853 45.27981285 -28.80859375 45.29296875 C-29.59334579 45.30845261 -30.37809784 45.32393646 -31.18663025 45.33988953 C-38.01777193 45.34192593 -45.04094283 44.29857535 -50.0625 39.3125 C-50.701875 38.549375 -51.34125 37.78625 -52 37 C-51.505 37.268125 -51.01 37.53625 -50.5 37.8125 C-43.65322598 41.06471766 -38.21402335 42.4530597 -30.6875 42.51171875 C-29.92888672 42.52835571 -29.17027344 42.54499268 -28.38867188 42.56213379 C-25.59272119 42.61935676 -22.79631139 42.65204119 -20 42.6875 C-13.73 42.790625 -7.46 42.89375 -1 43 C-1.33 29.47 -1.66 15.94 -2 2 C-4.64 2.33 -7.28 2.66 -10 3 C-10.495 2.01 -10.495 2.01 -11 1 C-7.11651516 -0.29449495 -4.09302664 -0.13203312 0 0 Z " fill="#391045" transform="translate(158,100)"/>
<path d="M0 0 C0 0.66 0 1.32 0 2 C-4.17301615 2.08182385 -7.93157798 1.92992503 -12 1 C-12.66 1 -13.32 1 -14 1 C-14 1.99 -14 2.98 -14 4 C-13.34 4.33 -12.68 4.66 -12 5 C-12.66 5 -13.32 5 -14 5 C-14 5.66 -14 6.32 -14 7 C-14.99 7 -15.98 7 -17 7 C-17 7.66 -17 8.32 -17 9 C-16.01 9.33 -15.02 9.66 -14 10 C-14.99 10.33 -15.98 10.66 -17 11 C-16.01 12.98 -15.02 14.96 -14 17 C-17.24773396 15.91742201 -17.7442511 15.34169802 -19.75 12.75 C-22.78146647 9.05587628 -26.02085634 6.62623482 -30 4 C-23.91533476 -3.26892894 -8.09176821 -4.04588411 0 0 Z " fill="#471657" transform="translate(85,66)"/>
<path d="M0 0 C0.66 0 1.32 0 2 0 C1.67 1.32 1.34 2.64 1 4 C-17.81 4 -36.62 4 -56 4 C-56.33 3.34 -56.66 2.68 -57 2 C-38.19 2 -19.38 2 0 2 C0 1.34 0 0.68 0 0 Z " fill="#30093F" transform="translate(167,151)"/>
<path d="M0 0 C0 0.66 0 1.32 0 2 C-1.11375 1.95875 -2.2275 1.9175 -3.375 1.875 C-7.04366025 1.58878141 -7.04366025 1.58878141 -9 4 C-8.84041523 9.7450518 -4.861484 13.138516 -1 17 C-1 18.32 -1 19.64 -1 21 C-1.66 21 -2.32 21 -3 21 C-3.25652344 20.41992188 -3.51304688 19.83984375 -3.77734375 19.2421875 C-6.64104242 13.39908517 -9.56265916 10.42333872 -15.20703125 7.19140625 C-16.09455078 6.60166016 -16.09455078 6.60166016 -17 6 C-17 5.34 -17 4.68 -17 4 C-11.20200116 -0.0333905 -6.98629919 -0.50604984 0 0 Z " fill="#441B52" transform="translate(62,95)"/>
<path d="M0 0 C0.53625 0.515625 1.0725 1.03125 1.625 1.5625 C4.00496499 3.32605545 4.00496499 3.32605545 7.25 2.6875 C8.1575 2.460625 9.065 2.23375 10 2 C10 1.34 10 0.68 10 0 C11.9375 0.375 11.9375 0.375 14 1 C14.33 1.66 14.66 2.32 15 3 C14.34 3 13.68 3 13 3 C12.65099442 6.71736641 12.65099442 6.71736641 14.5 9.8125 C14.995 10.204375 15.49 10.59625 16 11 C9.89032609 10.42721807 3.9707203 6.61195463 0 2 C0 1.34 0 0.68 0 0 Z " fill="#451353" transform="translate(93,137)"/>
<path d="M0 0 C3 1 3 1 4 3 C5.98 2.67 7.96 2.34 10 2 C10.625 4.3125 10.625 4.3125 11 7 C10.01 8.485 10.01 8.485 9 10 C9.83144531 10.72316406 9.83144531 10.72316406 10.6796875 11.4609375 C11.40414062 12.09257812 12.12859375 12.72421875 12.875 13.375 C13.59429687 14.00148437 14.31359375 14.62796875 15.0546875 15.2734375 C16.4076598 16.47426834 17.7208345 17.7208345 19 19 C11.74578196 17.69713601 7.04521208 11.34409294 3 5.625 C0 1.19196429 0 1.19196429 0 0 Z " fill="#3B1049" transform="translate(67,134)"/>
<path d="M0 0 C-3.28463659 2.18975773 -6.20696275 2.99806563 -10 4 C-6.62182575 4.84454356 -4.32534757 5.10844919 -1 4 C-1 4.66 -1 5.32 -1 6 C-8.87746171 10.23632385 -8.87746171 10.23632385 -13.5625 9.25 C-14.366875 8.8375 -15.17125 8.425 -16 8 C-15 5 -15 5 -12.890625 3.61328125 C-12.01921875 3.18402344 -11.1478125 2.75476563 -10.25 2.3125 C-9.38890625 1.87550781 -8.5278125 1.43851562 -7.640625 0.98828125 C-4.88971748 -0.04127438 -2.90929095 -0.19360389 0 0 Z " fill="#3C144B" transform="translate(148,87)"/>
<path d="M0 0 C0.33 0 0.66 0 1 0 C1.19335938 0.66386719 1.38671875 1.32773438 1.5859375 2.01171875 C3.27262278 10.06263025 3.27262278 10.06263025 7.875 16.1875 C8.57625 16.455625 9.2775 16.72375 10 17 C11.33333333 17.66666667 12.66666667 18.33333333 14 19 C14 19.66 14 20.32 14 21 C8.39244016 19.18578946 4.39595764 16.09393646 1.125 11.1875 C-0.28605696 7.18950528 -0.21822897 4.2190935 0 0 Z " fill="#461C53" transform="translate(108,117)"/>
<path d="M0 0 C1.640625 1.1015625 1.640625 1.1015625 4.015625 3.0390625 C3.685625 4.0290625 3.355625 5.0190625 3.015625 6.0390625 C2.685625 5.3790625 2.355625 4.7190625 2.015625 4.0390625 C1.025625 4.0390625 0.035625 4.0390625 -0.984375 4.0390625 C-1.314375 3.3790625 -1.644375 2.7190625 -1.984375 2.0390625 C-4.46826271 1.56906707 -4.46826271 1.56906707 -7.359375 1.4140625 C-8.33648437 1.33929688 -9.31359375 1.26453125 -10.3203125 1.1875 C-12.20605665 1.08242921 -14.09570593 1.0390625 -15.984375 1.0390625 C-15.984375 0.3790625 -15.984375 -0.2809375 -15.984375 -0.9609375 C-10.82186354 -2.51920709 -4.90250933 -2.37404979 0 0 Z " fill="#3F194E" transform="translate(137.984375,98.9609375)"/>
<path d="M0 0 C0 1.32 0 2.64 0 4 C-1.6396875 4.2165625 -1.6396875 4.2165625 -3.3125 4.4375 C-6.93122987 4.88288104 -6.93122987 4.88288104 -10 6 C-10 5.34 -10 4.68 -10 4 C-10.66 4 -11.32 4 -12 4 C-12 3.34 -12 2.68 -12 2 C-11.38125 1.855625 -10.7625 1.71125 -10.125 1.5625 C-3.90178571 -0.08482143 -3.90178571 -0.08482143 0 0 Z " fill="#511661" transform="translate(106,152)"/>
<path d="M0 0 C0.33 0.99 0.66 1.98 1 3 C-0.28716647 4.00578589 -1.57988658 5.00446798 -2.875 6 C-3.95394531 6.8353125 -3.95394531 6.8353125 -5.0546875 7.6875 C-7 9 -7 9 -9 9 C-9 8.34 -9 7.68 -9 7 C-8.34 7 -7.68 7 -7 7 C-7.33 6.01 -7.66 5.02 -8 4 C-6.03533587 2.93224776 -4.03144641 1.93446535 -2 1 C-1.34 1.33 -0.68 1.66 0 2 C0 1.34 0 0.68 0 0 Z " fill="#40134F" transform="translate(144,129)"/>
<path d="M0 0 C0.66 0 1.32 0 2 0 C2 0.99 2 1.98 2 3 C2.66 3 3.32 3 4 3 C4.66 6.63 5.32 10.26 6 14 C5.34 14 4.68 14 4 14 C3.32968281 12.0429132 2.66385317 10.08428887 2 8.125 C1.62875 7.03445312 1.2575 5.94390625 0.875 4.8203125 C0 2 0 2 0 0 Z " fill="#3B1449" transform="translate(79,112)"/>
<path d="M0 0 C0.99 0 1.98 0 3 0 C4.82421875 2.1171875 4.82421875 2.1171875 6.6875 4.875 C7.31011719 5.77992188 7.93273437 6.68484375 8.57421875 7.6171875 C10 10 10 10 10 12 C9.34 12 8.68 12 8 12 C8 11.34 8 10.68 8 10 C7.34 10 6.68 10 6 10 C2 4.70588235 2 4.70588235 2 1 C1.34 0.67 0.68 0.34 0 0 Z " fill="#401452" transform="translate(77,129)"/>
<path d="M0 0 C-0.66 2.31 -1.32 4.62 -2 7 C-3.65 6.67 -5.3 6.34 -7 6 C-5.52522876 2.59668175 -4.14385429 0 0 0 Z " fill="#421652" transform="translate(121,99)"/>
<path d="M0 0 C3.16230974 2.39309927 5.95907605 4.56265439 8 8 C8 9.32 8 10.64 8 12 C7.34 12 6.68 12 6 12 C5.18432826 10.56429734 4.37257907 9.12636566 3.5625 7.6875 C3.11003906 6.88699219 2.65757813 6.08648437 2.19140625 5.26171875 C1 3 1 3 0 0 Z " fill="#3D154A" transform="translate(53,104)"/>
<path d="M0 0 C0.33 0.66 0.66 1.32 1 2 C2.84971696 3.05021103 2.84971696 3.05021103 5 4 C7 5 7 5 9 6 C9 6.66 9 7.32 9 8 C4.56541027 6.6062718 2.12621626 4.39417765 -1 1 C-0.67 0.67 -0.34 0.34 0 0 Z " fill="#381243" transform="translate(113,130)"/>
<path d="M0 0 C2.64 0.99 5.28 1.98 8 3 C8 3.66 8 4.32 8 5 C5.69 5 3.38 5 1 5 C0.67 3.35 0.34 1.7 0 0 Z " fill="#3F124B" transform="translate(97,148)"/>
<path d="M0 0 C4.51135667 2.19471406 6.06273348 4.41173718 8 9 C3.96189555 7.65396518 2.52704924 5.34663277 0 2 C0 1.34 0 0.68 0 0 Z " fill="#381447" transform="translate(63,74)"/>
<path d="M0 0 C0.66 0 1.32 0 2 0 C2.33 2.64 2.66 5.28 3 8 C2.34 8 1.68 8 1 8 C-0.35439668 5.29120665 -0.06501451 2.99066732 0 0 Z " fill="#461850" transform="translate(72,113)"/>
<path d="M0 0 C0.99 0.99 1.98 1.98 3 3 C2.67 3.66 2.34 4.32 2 5 C0.35 5 -1.3 5 -3 5 C-2.625 3.0625 -2.625 3.0625 -2 1 C-1.34 0.67 -0.68 0.34 0 0 Z " fill="#62326E" transform="translate(142,102)"/>
<path d="M0 0 C0.66 0.33 1.32 0.66 2 1 C0.71937515 2.7074998 -0.61767557 4.37373596 -2 6 C-2.66 6 -3.32 6 -4 6 C-2.25 1.125 -2.25 1.125 0 0 Z " fill="#401551" transform="translate(112,108)"/>
</svg>
