<?xml version="1.0" standalone="no"?>
<!DOCTYPE svg PUBLIC "-//W3C//DTD SVG 20010904//EN"
 "http://www.w3.org/TR/2001/REC-SVG-20010904/DTD/svg10.dtd">
<svg version="1.0" xmlns="http://www.w3.org/2000/svg"
 width="224.000000pt" height="224.000000pt" viewBox="0 0 224.000000 224.000000"
 preserveAspectRatio="xMidYMid meet">

<g transform="translate(0.000000,224.000000) scale(0.100000,-0.100000)"
fill="#000000" stroke="none">
<path d="M915 2179 c-86 -8 -239 -34 -279 -46 -16 -4 -18 -12 -13 -56 9 -72
24 -84 89 -70 40 8 56 8 64 0 15 -16 67 -205 59 -217 -3 -5 -28 -19 -55 -31
-97 -42 -155 -140 -131 -221 23 -76 115 -136 188 -125 79 13 153 104 153 188
0 57 17 65 112 51 159 -23 284 -108 322 -219 20 -58 21 -157 2 -211 -32 -89
-76 -126 -228 -190 -267 -111 -385 -270 -391 -527 -2 -100 3 -107 73 -98 64 8
73 18 65 72 -7 57 24 186 61 248 35 60 94 102 269 187 171 84 225 130 272 231
26 55 28 69 28 181 0 119 0 121 -38 196 -77 157 -246 257 -468 275 -37 3 -72
9 -78 12 -14 9 -63 200 -56 219 8 22 328 10 450 -16 97 -22 109 -19 126 26 24
64 23 71 -15 87 -100 42 -414 71 -581 54z m-77 -586 c-3 -32 -35 -44 -45 -17
-4 11 1 22 12 30 28 21 37 17 33 -13z"/>
<path d="M833 334 c-46 -23 -69 -76 -54 -125 20 -66 82 -100 146 -79 44 15 75
60 75 112 0 80 -92 131 -167 92z"/>
</g>
</svg>
